<svg xmlns="http://www.w3.org/2000/svg" width="104.476" height="95.586" viewBox="0 0 104.476 95.586">
  <path id="Path_4337" data-name="Path 4337" d="M677.839,71.695c-.149-.388-.336-.752-.5-1.135a68.876,68.876,0,0,0-.527-15.907c-.181-1.212-4.263-.172-4.265,1.142q-.005,3.03-.01,6.058c-9.836-13.911-27-21.786-44.23-21.539-22.51.323-42.86,12.866-57.331,29.412-1.053,1.2,3.122.806,3.919-.1,14.267-16.314,34.946-29.277,57.427-26.96,16.953,1.747,32.659,11.75,39.953,27.167a33.518,33.518,0,0,1-3.53-1.556L662.98,64.6c-1.01-.642-4.991.79-3.988,1.566a37.716,37.716,0,0,0,5.943,3.78l7.955,5.061c.839.533,3.95.175,4.113-1.1.052-.4.089-.8.133-1.2C677.658,72.449,678,72.108,677.839,71.695Z" transform="matrix(-0.766, -0.643, 0.643, -0.766, 493.375, 493.375)" fill="#8b3dff"/>
</svg>
