<svg xmlns="http://www.w3.org/2000/svg" xmlns:xlink="http://www.w3.org/1999/xlink" width="32" height="32" viewBox="0 0 32 32">
  <defs>
    <clipPath id="clip-path">
      <rect id="Rectangle_2686" data-name="Rectangle 2686" width="32" height="32" transform="translate(1475 239.27)" fill="#fff" stroke="#707070" stroke-width="1"/>
    </clipPath>
  </defs>
  <g id="blank_portrait" transform="translate(-1475 -239.27)" clip-path="url(#clip-path)">
    <g id="Group_6443" data-name="Group 6443" transform="translate(1480.849 240.008)">
      <path id="Path_15231" data-name="Path 15231" d="M4.034,0H15.328a4.034,4.034,0,0,1,4.034,4.034V25.009a4.034,4.034,0,0,1-4.034,4.034H4.034A4.034,4.034,0,0,1,0,25.009V4.034A4.034,4.034,0,0,1,4.034,0Z" transform="translate(0.605 0.605)" fill="#fff"/>
      <path id="Path_15225_-_Outline" data-name="Path 15225 - Outline" d="M3.889-.75H15.183a4.644,4.644,0,0,1,4.639,4.639V24.864A4.644,4.644,0,0,1,15.183,29.5H3.889A4.644,4.644,0,0,1-.75,24.864V3.889A4.644,4.644,0,0,1,3.889-.75ZM15.183,28.293a3.433,3.433,0,0,0,3.429-3.429V3.889A3.433,3.433,0,0,0,15.183.46H3.889A3.433,3.433,0,0,0,.46,3.889V24.864a3.433,3.433,0,0,0,3.429,3.429Z" transform="translate(0.75 0.75)" fill="#8b3dff"/>
      <path id="Path_15232" data-name="Path 15232" d="M1.613,0H12.908a1.613,1.613,0,0,1,1.613,1.613V22.589A1.613,1.613,0,0,1,12.908,24.2H1.613A1.613,1.613,0,0,1,0,22.589V1.613A1.613,1.613,0,0,1,1.613,0Z" transform="translate(3.025 3.025)" fill="#8b3dff" opacity="0.5"/>
      <path id="Path_15233" data-name="Path 15233" d="M.908,0H9.177a.908.908,0,0,1,0,1.815H.908A.908.908,0,0,1,.908,0Z" transform="translate(5.244 4.437)" fill="#fff"/>
    </g>
  </g>
</svg>
