<svg xmlns="http://www.w3.org/2000/svg" xmlns:xlink="http://www.w3.org/1999/xlink" width="32" height="32" viewBox="0 0 32 32">
  <defs>
    <clipPath id="clip-path">
      <rect id="Rectangle_2663" data-name="Rectangle 2663" width="32" height="32" transform="translate(-0.071 -0.071)" fill="none"/>
    </clipPath>
  </defs>
  <g id="Group_6442" data-name="Group 6442" transform="translate(-297.193 -543.632)">
    <g id="Group_6425" data-name="Group 6425" transform="translate(297.264 543.704)" clip-path="url(#clip-path)">
      <g id="blank_landscape" data-name="blank landscape" transform="translate(0.572 3.132)">
        <g id="Group_6422" data-name="Group 6422">
          <g id="Group_6424" data-name="Group 6424">
            <path id="Path_2467" data-name="Path 2467" d="M307.561,572.842h11.76m-5.88-3.968v3.968m-7.644-3.968h15.289c2.47,0,3.7,0,4.648-.48a4.411,4.411,0,0,0,1.927-1.927c.48-.942.48-2.179.48-4.648v-6.468c0-2.47,0-3.7-.48-4.648a4.418,4.418,0,0,0-1.927-1.927c-.942-.48-2.179-.48-4.648-.48H305.8c-2.47,0-3.7,0-4.648.48a4.418,4.418,0,0,0-1.927,1.927c-.48.943-.48,2.178-.48,4.648v6.468c0,2.47,0,3.7.48,4.648a4.417,4.417,0,0,0,1.927,1.925c.944.483,2.179.483,4.648.483Z" transform="translate(-298.153 -547.704)" fill="#fff"/>
            <path id="Path_15228" data-name="Path 15228" d="M319.161,573.27H307.4a.589.589,0,1,1,0-1.178h5.291V569.3h-7.056v-.589l-.006.589c-2.558,0-3.841,0-4.911-.548a4.982,4.982,0,0,1-2.183-2.182c-.544-1.071-.544-2.356-.544-4.916v-6.469c0-2.56,0-3.845.544-4.914a4.977,4.977,0,0,1,2.184-2.186c1.07-.545,2.355-.545,4.916-.545h15.289c2.562,0,3.849,0,4.916.545a4.98,4.98,0,0,1,2.184,2.185c.545,1.07.545,2.355.545,4.915v6.469c0,2.561,0,3.847-.545,4.915a4.978,4.978,0,0,1-2.184,2.184c-1.07.546-2.355.546-4.916.546h-7.055v2.79h5.291a.589.589,0,1,1,0,1.178Zm-13.525-24.549c-2.372,0-3.563,0-4.381.416a3.81,3.81,0,0,0-1.671,1.671c-.415.817-.415,2.008-.415,4.38v6.469c0,2.372,0,3.563.416,4.382a3.809,3.809,0,0,0,1.67,1.667c.818.419,2.008.419,4.381.419h15.289c2.373,0,3.564,0,4.382-.416a3.813,3.813,0,0,0,1.67-1.671c.416-.816.416-2.008.416-4.381v-6.469c0-2.373,0-3.564-.416-4.382a3.811,3.811,0,0,0-1.67-1.67c-.817-.416-2.007-.416-4.382-.416Z" transform="translate(-297.992 -547.543)" fill="#8b3dff"/>
          </g>
          <path id="Path_15224" data-name="Path 15224" d="M304.019,551.347h20.117a2.322,2.322,0,0,1,2.321,2.322h0V564.5a2.321,2.321,0,0,1-2.321,2.321H304.019A2.321,2.321,0,0,1,301.7,564.5V553.668a2.322,2.322,0,0,1,2.321-2.322Z" transform="translate(-298.788 -548.361)" fill="#8b3dff" opacity="0.5" style="mix-blend-mode: normal;isolation: isolate"/>
        </g>
      </g>
    </g>
  </g>
</svg>
