<svg xmlns="http://www.w3.org/2000/svg" xmlns:xlink="http://www.w3.org/1999/xlink" width="24" height="24" viewBox="0 0 24 24">
  <defs>
    <clipPath id="clip-path">
      <rect id="Rectangle_1614" data-name="Rectangle 1614" width="24" height="24" transform="translate(821 861)" fill="#fff"/>
    </clipPath>
  </defs>
  <g id="edit_circular_head" transform="translate(-821 -861)" clip-path="url(#clip-path)">
    <g id="profile-circle" transform="translate(329 609)">
      <path id="Vector" d="M3.4,6.55a.963.963,0,0,0-.24,0,3.28,3.28,0,1,1,.24,0Z" transform="translate(500.72 258.23)" fill="none" stroke="#8b3dff" stroke-linecap="round" stroke-linejoin="round" stroke-width="1.5"/>
      <path id="Vector-2" data-name="Vector" d="M13.48,3.945a9.934,9.934,0,0,1-6.74,2.62A9.934,9.934,0,0,1,0,3.945a3.679,3.679,0,0,1,1.77-2.58,9.73,9.73,0,0,1,9.94,0A3.679,3.679,0,0,1,13.48,3.945Z" transform="translate(497.26 267.435)" fill="none" stroke="#8b3dff" stroke-linecap="round" stroke-linejoin="round" stroke-width="1.5"/>
      <path id="Vector-3" data-name="Vector" d="M20,10A10,10,0,1,1,10,0,10,10,0,0,1,20,10Z" transform="translate(494 254)" fill="none" stroke="#8b3dff" stroke-linecap="round" stroke-linejoin="round" stroke-width="1.5"/>
    </g>
  </g>
</svg>
