<svg xmlns="http://www.w3.org/2000/svg" xmlns:xlink="http://www.w3.org/1999/xlink" width="24" height="24" viewBox="0 0 24 24">
  <defs>
    <clipPath id="clip-path">
      <rect id="Rectangle_2117" data-name="Rectangle 2117" width="24" height="24" transform="translate(241 774)" fill="#676778" stroke="#8c8c97" stroke-width="1"/>
    </clipPath>
  </defs>
  <g id="edit_sound" transform="translate(-241 -774)" clip-path="url(#clip-path)">
    <path id="Path_3988" data-name="Path 3988" d="M126.383,284.233a2.751,2.751,0,0,0-3.605-1.091,3.588,3.588,0,0,0-1.134,1.1c-.372.495-.83,1.183-1.417,2.062l-.014.022a3.851,3.851,0,0,1-.4.558,1.25,1.25,0,0,1-.631.338,3.988,3.988,0,0,1-.687.025h-.608a7.526,7.526,0,0,0-1.855.128,3.749,3.749,0,0,0-2.651,2.651,7.525,7.525,0,0,0-.128,1.855v.232a7.525,7.525,0,0,0,.128,1.855,3.749,3.749,0,0,0,2.651,2.651,7.526,7.526,0,0,0,1.855.128h.608a3.988,3.988,0,0,1,.687.025,1.25,1.25,0,0,1,.631.338,3.851,3.851,0,0,1,.4.558l.014.022c.587.879,1.045,1.567,1.417,2.062a3.588,3.588,0,0,0,1.134,1.1,2.751,2.751,0,0,0,3.605-1.091,3.6,3.6,0,0,0,.333-1.548c.034-.618.034-1.444.034-2.5h0v-7.436h0c0-1.057,0-1.883-.034-2.5A3.6,3.6,0,0,0,126.383,284.233Zm-2.938.253a1.249,1.249,0,0,1,1.638.5,2.533,2.533,0,0,1,.135.882c.032.572.032,1.356.032,2.444v7.384c0,1.088,0,1.872-.032,2.444a2.533,2.533,0,0,1-.135.882,1.249,1.249,0,0,1-1.638.5,2.554,2.554,0,0,1-.6-.659c-.343-.458-.778-1.11-1.382-2.016l-.036-.053a4.685,4.685,0,0,0-.558-.738,2.753,2.753,0,0,0-1.388-.743,4.718,4.718,0,0,0-.923-.055H118a7.037,7.037,0,0,1-1.582-.077,2.248,2.248,0,0,1-1.591-1.591,16.289,16.289,0,0,1,0-3.164,2.248,2.248,0,0,1,1.591-1.591A7.037,7.037,0,0,1,118,288.75h.556a4.718,4.718,0,0,0,.923-.055,2.753,2.753,0,0,0,1.388-.743,4.685,4.685,0,0,0,.558-.738l.036-.053c.6-.906,1.039-1.558,1.382-2.016A2.554,2.554,0,0,1,123.445,284.486Zm5.931,1.1a.751.751,0,0,1,1.041-.207,8.249,8.249,0,0,1,0,13.248.75.75,0,1,1-.833-1.248,6.753,6.753,0,0,0,0-10.752A.751.751,0,0,1,129.376,285.583Zm-1,4a.751.751,0,0,1,1.041-.207,3.249,3.249,0,0,1,0,5.248.75.75,0,1,1-.833-1.248,1.754,1.754,0,0,0,0-2.752A.751.751,0,0,1,128.376,289.583Z" transform="translate(129.5 494)" fill="#1E1E2E" fill-rule="evenodd"/>
  </g>
</svg>
