<svg xmlns="http://www.w3.org/2000/svg" xmlns:xlink="http://www.w3.org/1999/xlink" width="22" height="22" viewBox="0 0 22 22">
  <defs>
    <clipPath id="clip-path">
      <rect id="Rectangle_1323" data-name="Rectangle 1323" width="22" height="22" transform="translate(877 392)" fill="#fff" stroke="#707070" stroke-width="1"/>
    </clipPath>
  </defs>
  <g id="video_library_edit" transform="translate(-877 -392)" clip-path="url(#clip-path)">
    <path id="Path_295" data-name="Path 295" d="M293.514,451.806a2.746,2.746,0,0,1,3.887,0l2.492,2.491a2.752,2.752,0,0,1,.025,3.867l-9.233,9.474A3.752,3.752,0,0,1,288,468.769h-2.752A2.25,2.25,0,0,1,283,466.423l.118-2.809a3.756,3.756,0,0,1,1.094-2.494Zm2.827,1.06a1.248,1.248,0,0,0-1.767,0l-1.663,1.665,4.28,4.28,1.654-1.7a1.252,1.252,0,0,0-.012-1.758Zm-11.067,9.315,6.577-6.587,4.293,4.292-6.533,6.7a2.247,2.247,0,0,1-1.61.679h-2.752a.751.751,0,0,1-.749-.782l.118-2.809A2.255,2.255,0,0,1,285.274,462.181Zm15.241,6.514a.75.75,0,0,0,0-1.5h-6.122a.75.75,0,0,0,0,1.5Z" transform="translate(595.867 -56.884)" fill="#fff" fill-rule="evenodd"/>
  </g>
</svg>
